<?xml version="1.0" encoding="UTF-8"?>
<svg width="64px" height="19px" viewBox="0 0 64 19" version="1.1" xmlns="http://www.w3.org/2000/svg" xmlns:xlink="http://www.w3.org/1999/xlink">
    <!-- Generator: Sketch 50.2 (55047) - http://www.bohemiancoding.com/sketch -->
    <title>logo</title>
    <desc>Created with Sketch.</desc>
    <defs>
        <polygon id="path-1" points="0.165976044 0.149907201 9.63800984 0.149907201 9.63800984 10.8155676 0.165976044 10.8155676"></polygon>
        <polygon id="path-3" points="0 18.3692974 63.5200005 18.3692974 63.5200005 0.0872112439 0 0.0872112439"></polygon>
    </defs>
    <g id="Page-1" stroke="none" stroke-width="1" fill="none" fill-rule="evenodd">
        <g id="vapulus|checkout|success" transform="translate(-717.000000, -586.000000)">
            <g id="Group" transform="translate(660.000000, 586.000000)">
                <g id="logo" transform="translate(57.000000, 0.000000)">
                    <polygon id="Fill-1" fill="#3F9C36" points="0 5.72121211 3.76742273 14.8159028 4.7868329 12.3542452 2.03916369 5.72121211"></polygon>
                    <polygon id="Fill-2" fill="#0044AC" points="9.57385464 5.72128078 7.53451928 5.72128078 4.78702174 12.3543139 3.76726822 14.8159714 5.80660359 14.8159714"></polygon>
                    <g id="Group-23" transform="translate(0.000000, 0.084464)">
                        <path d="M13.1143393,12.6723259 C12.3042018,12.1761832 11.7850545,11.2796928 11.7850545,10.1842303 C11.7850545,9.97942126 11.8035955,9.78165088 11.8384457,9.59212093 L10.8301944,7.15775984 C10.2010031,7.97304763 9.82056976,9.01958255 9.82056976,10.1842303 C9.82056976,12.7705244 11.7182727,14.801791 14.0607873,14.9573292 L13.1143393,12.6723259 Z" id="Fill-3" fill="#0044AC"></path>
                        <path d="M17.5328935,13.4218963 L17.5328935,14.7314383 L19.4973783,14.7314383 L19.4973783,6.8223399 L17.5328935,6.00842551 L17.5328935,6.92809211 C16.8418989,5.98233081 15.7687543,5.40017859 14.3498548,5.40017859 C12.9390241,5.40017859 11.6651906,6.07537903 10.8299884,7.15779417 L11.8384113,9.59215527 C12.0907746,8.21548802 13.2200572,7.27384693 14.6590427,7.27384693 C16.2959703,7.27384693 17.5328935,8.49240088 17.5328935,10.1842647 C17.5328935,11.8757851 16.2959703,13.0943391 14.6590427,13.0943391 C14.0820408,13.0943391 13.5553398,12.9424061 13.1144766,12.6723603 L14.060753,14.9571918 C14.156548,14.9635438 14.252858,14.9680074 14.3498548,14.9680074 C15.7687543,14.9680074 16.8418989,14.3858552 17.5328935,13.4218963" id="Fill-5" fill="#C80060"></path>
                        <polygon id="Fill-7" fill="#EB2838" points="19.497344 6.82211672 19.497344 5.63686785 17.5328592 5.63686785 17.5328592 6.00837401"></polygon>
                        <g id="Group-11" transform="translate(21.459460, 7.553730)">
                            <mask id="mask-2" fill="white">
                                <use xlink:href="#path-1"></use>
                            </mask>
                            <g id="Clip-10"></g>
                            <path d="M0.165976044,0.149907201 L0.165976044,10.815602 L2.13028914,10.815602 L2.13028914,5.88610659 C2.82145541,6.83238292 3.89477175,7.41436347 5.31349954,7.41436347 C7.32502345,7.41436347 9.05997784,6.04301816 9.63800984,4.07338312 L7.80605869,3.31457663 C7.52090539,4.64059956 6.41085047,5.54069513 5.00431165,5.54069513 C3.36721239,5.54069513 2.13028914,4.3219695 2.13028914,2.63044906 C2.13028914,2.0654644 2.26883141,1.55387089 2.51346925,1.12227824 L0.165976044,0.149907201 Z" id="Fill-9" fill="#C80060" mask="url(#mask-2)"></path>
                        </g>
                        <path d="M31.0974523,11.6270271 C31.2303293,11.1746617 31.3020897,10.6905363 31.3020897,10.1842647 C31.3020897,7.49221839 29.2466168,5.40017859 26.772942,5.40017859 C25.3542142,5.40017859 24.2808979,5.98233081 23.5899033,6.94628974 L23.5899033,5.63691935 L21.6254185,5.63691935 L21.6254185,7.70355115 L23.9729117,8.67609386 C24.4609856,7.81514034 25.3732702,7.2740186 26.4637541,7.2740186 C28.1008533,7.2740186 29.3376049,8.49240088 29.3376049,10.1842647 C29.3376049,10.4223788 29.3121969,10.6508792 29.2655011,10.8682206 L31.0974523,11.6270271 Z" id="Fill-12" fill="#EB2838"></path>
                        <path d="M32.9477384,12.3935246 C33.5080878,14.0356025 35.2219261,14.9679731 36.8945622,14.9679731 C37.4322504,14.9679731 37.9740589,14.8708046 38.4810171,14.6855666 L32.9477384,12.3935246 Z" id="Fill-14" fill="#C80060"></path>
                        <path d="M41.0317572,11.2208081 L41.0317572,5.63688501 L39.0674441,5.63688501 L39.0674441,10.9411484 C39.0674441,12.3236526 38.1312966,13.0510425 36.8943734,13.0510425 C35.6577935,13.0510425 34.721646,12.3236526 34.721646,10.9411484 L34.721646,5.63688501 L32.7573329,5.63688501 L32.7573329,11.2208081 C32.7573329,11.6441603 32.8254882,12.0354092 32.9477212,12.393353 L38.481,14.6853949 C39.8937191,14.1688228 41.0317572,12.9614278 41.0317572,11.2208081" id="Fill-16" fill="#EB2838"></path>
                        <mask id="mask-4" fill="white">
                            <use xlink:href="#path-3"></use>
                        </mask>
                        <g id="Clip-19"></g>
                        <polygon id="Fill-18" fill="#EB2838" mask="url(#mask-4)" points="42.7213205 14.7314898 44.6856336 14.7314898 44.6856336 1.45323461 42.7213205 1.45323461"></polygon>
                        <path d="M46.6756637,5.63681634 L46.6756637,11.2207394 C46.6756637,13.5857435 48.7756006,14.9682478 50.8130475,14.9682478 C52.8499795,14.9682478 54.950088,13.5857435 54.950088,11.2207394 L54.950088,5.63681634 L52.9857749,5.63681634 L52.9857749,10.9410797 C52.9857749,12.323584 52.0497991,13.0511455 50.8130475,13.0511455 C49.5761243,13.0511455 48.6399768,12.323584 48.6399768,10.9410797 L48.6399768,5.63681634 L46.6756637,5.63681634 Z" id="Fill-20" fill="#EB2838" mask="url(#mask-4)"></path>
                        <path d="M59.973078,13.1672326 C58.9725521,13.1672326 58.2448189,12.6762401 57.9540003,11.8573472 L56.2624799,12.8398471 C56.8444604,14.1493891 58.1540025,14.9681104 59.973078,14.9681104 C61.9375627,14.9681104 63.5200691,13.9856105 63.5200691,12.1667067 C63.5200691,8.80152011 58.626969,9.80204595 58.626969,8.14692075 C58.626969,7.49214972 59.2456881,7.18296182 59.9548803,7.18296182 C60.7004678,7.18296182 61.3372129,7.51017566 61.6647701,8.21971124 L63.3198953,7.29214756 C62.6833219,6.09144787 61.4463986,5.4002816 59.9548803,5.4002816 C58.0994096,5.4002816 56.626089,6.47342625 56.626089,8.18348767 C56.626089,11.4391452 61.5191891,10.5297791 61.5191891,12.1485091 C61.5191891,12.8762423 60.8460488,13.1672326 59.973078,13.1672326" id="Fill-21" fill="#EB2838" mask="url(#mask-4)"></path>
                        <path d="M9.75450896,0.115692239 C9.79244928,0.0578375356 9.88275069,0.0950911574 9.86850161,0.16290305 C9.61699674,1.37836684 10.1332255,2.62438891 11.1706616,3.30628469 C11.2285163,3.34439669 11.1912627,3.43435475 11.1232791,3.42027734 C9.90764366,3.16877248 8.66179327,3.68500124 7.98006916,4.722094 C7.94195716,4.78012038 7.85182743,4.74269508 7.86607651,4.67522654 C8.11758138,3.4594194 7.60135262,2.21356901 6.56408818,1.5318449 C6.5060618,1.49356122 6.54331542,1.40360317 6.61129899,1.41785225 C7.82676278,1.66935711 9.07261317,1.15312835 9.75450896,0.115692239" id="Fill-22" fill="#FFA100" mask="url(#mask-4)"></path>
                    </g>
                </g>
            </g>
        </g>
    </g>
</svg>